<svg xmlns="http://www.w3.org/2000/svg" viewBox="0 0 83.71 89.13">
  <defs>
    <style>
      .cls-1 {
        fill: #8b5cf6;
      }
    </style>
  </defs>
  <path class="cls-1" d="M82.35,15.25C73.38,3.57,58.5-.66,43.91.08,22.93,1.15,5.93,14.54,1.28,34.25c-4.73,20.07,3.79,40.95,23.63,50.42l.45-16.94c-9.97-8.92-13.15-22.36-8.14-34.95,4.43-11.12,15.63-18.87,28.68-19.39,10.5-.42,19.86,3.37,26.9,10.58l9.55-8.73Z"/>
  <path class="cls-1" d="M72.99,64.48c-3.08,3.84-3.97,4.97-6.6,5.9l-.1-37.36-14.4.05-.06,56.06c12.7-.65,23.38-6.15,31.88-15.62l-10.72-9.04Z"/>
  <path class="cls-1" d="M31.54,51.39l-.13,35.76c4.93,1.29,9.52,1.93,14.46,1.94l-.1-37.8-14.24.1Z"/>
</svg>
